<?xml version="1.0" standalone="no"?><!DOCTYPE svg PUBLIC "-//W3C//DTD SVG 1.1//EN" "http://www.w3.org/Graphics/SVG/1.1/DTD/svg11.dtd"><svg t="1723218412390" class="icon" viewBox="0 0 1024 1024" version="1.1" xmlns="http://www.w3.org/2000/svg" p-id="4306" xmlns:xlink="http://www.w3.org/1999/xlink" width="200" height="200"><path d="M986.933536 564.111087a65.131072 65.131072 0 0 0-56.954646-16.306129c-25.058798 4.672243-45.69454 24.669445-51.33238 49.774966a64.788441 64.788441 0 0 0-0.778708 24.996502L809.855513 648.164745v-94.519483a67.545065 67.545065 0 0 0 37.736152-25.494874 66.922099 66.922099 0 0 0 11.789628-51.737308c-4.796837-26.927696-26.958844-49.074129-53.902114-53.855392a67.654084 67.654084 0 0 0-55.303787 14.608548 67.062266 67.062266 0 0 0-21.336578 70.145947l-115.51343 45.289612-59.446509-135.105704c21.211985-14.608548 33.998357-38.826342 33.063908-63.744973-1.432821-38.85749-33.313095-70.473004-71.049247-70.473004-42.408395 0-69.89676 36.614814-71.049247 70.5353-0.82543 24.155498 11.119939 42.096913 21.398874 52.952092l-89.784942 112.024821-58.013689-55.80216a65.567148 65.567148 0 0 0 10.543696-35.119696 61.89165 61.89165 0 0 0-61.813779-61.813779c-33.484411 0-61.221962 27.597384-61.81378 61.533445-0.327057 19.000456 8.410038 37.144335 23.719422 49.712669L200.906464 558.769156l-49.370038-10.341232-0.436076-1.791027c-4.376335-17.411894-15.901202-63.604806-78.260076-56.471848-24.700593 2.850068-46.301932 23.875163-52.516015 51.129917a68.946738 68.946738 0 0 0 13.129003 58.730099c16.539741 20.729186 44.012532 30.416304 69.974632 23.797292l82.511817 159.416943a62.545764 62.545764 0 0 0 52.60946 33.655727l588.858403 26.522768c0.934449 0.031148 1.853323 0.062297 2.787772 0.062296a62.701506 62.701506 0 0 0 57.375148-37.814023l54.945582-128.190783a63.464639 63.464639 0 0 0 23.563681-4.609947c22.535787-8.986281 38.77962-29.94908 41.380502-53.403741a65.146646 65.146646 0 0 0-20.526723-55.35051z m-32.425369 79.833065c-5.061597 2.024639-10.123194 2.756624-15.387254 2.227103a21.928395 21.928395 0 0 0-22.722677 13.160152l-57.468593 134.07781a31.615513 31.615513 0 0 1-30.13597 18.907011l-588.858403-26.522768a31.335179 31.335179 0 0 1-26.351453-16.851224L127.521095 602.625947a21.959544 21.959544 0 0 0-19.592274-11.805202c-2.694327 0-5.435376 0.482798-8.098555 1.495118-15.496274 5.918175-32.207331 0.607392-42.034616-11.711757-7.2887-9.110875-9.811711-20.620167-7.132958-32.378646 2.81892-12.334722 12.568335-25.603894 25.712913-27.114585 35.13527-3.955833 39.900958 14.857734 44.49533 33.141779 1.152487 4.454205 2.10251 8.301019 3.722221 11.727331 2.896791 6.120639 8.37889 10.403529 14.997901 11.774053l56.409551 11.789627c14.032304 2.959087 28.251498-4.656669 33.718023-18.735695l31.023696-89.722647a21.990692 21.990692 0 0 0-8.768243-25.557171c-9.718266-6.494418-15.652015-16.991392-15.449552-27.39492 0.26476-14.935605 12.646205-30.930251 30.665491-30.930251a30.681065 30.681065 0 0 1 30.66549 30.66549c0 0.841004-0.077871 3.893536-0.965597 7.537886a35.898403 35.898403 0 0 1-7.475589 14.5774 22.02184 22.02184 0 0 0 1.635285 29.855635l65.489278 62.98184c5.840304 5.450951 13.720821 8.238722 21.772654 7.864943a29.855635 29.855635 0 0 0 21.040669-10.668289l96.450677-120.372563A21.928395 21.928395 0 0 0 493.046266 389.353612c-6.634586-5.793582-17.645506-17.972563-17.10041-34.527878 0.669688-19.529977 16.866798-40.446053 39.916532-40.446053 22.987437 0 39.200122 20.93165 39.916532 40.477201 0.576243 15.838905-8.768243 31.350753-23.844015 39.542753a21.897247 21.897247 0 0 0-9.858434 28.204776l63.744974 144.855118a29.590875 29.590875 0 0 0 37.31565 14.686418l125.621049-49.261019c5.575544-2.195954 9.889582-6.447696 12.132259-12.007666a22.551361 22.551361 0 0 0-0.45165-17.723376 34.823787 34.823787 0 0 1-3.1927-14.561825c0-10.683863 4.703392-20.74476 12.895392-27.612958a36.022996 36.022996 0 0 1 52.266829 48.747072 36.194312 36.194312 0 0 1-24.31124 14.46838A22.271027 22.271027 0 0 0 778.707224 546.029506v103.801673a29.450707 29.450707 0 0 0 39.589476 27.65968l77.621536-28.391665c10.964198-4.002555 17.147133-16.165962 13.751969-27.13016a33.562281 33.562281 0 0 1-0.63854-17.520912c2.912365-12.92654 13.876563-23.610403 26.662936-25.993247a34.465582 34.465582 0 0 1 30.042524 8.503482c8.051833 7.460015 11.960943 18.081582 10.730586 29.108076-1.339376 12.132259-9.951878 23.096456-21.959544 27.877719z" p-id="4307" fill="#d4237a"></path><path d="M314.083772 664.502023m-27.254753 0a27.254753 27.254753 0 1 0 54.509506 0 27.254753 27.254753 0 1 0-54.509506 0Z" p-id="4308" fill="#d4237a"></path><path d="M500.319392 662.555255m-34.387711 0a34.387711 34.387711 0 1 0 68.775422 0 34.387711 34.387711 0 1 0-68.775422 0Z" p-id="4309" fill="#d4237a"></path><path d="M712.51711 693.04943m-28.547407 0a28.547407 28.547407 0 1 0 57.094814 0 28.547407 28.547407 0 1 0-57.094814 0Z" p-id="4310" fill="#d4237a"></path></svg>